<svg width="15" height="10" viewBox="0 0 15 10" fill="none" xmlns="http://www.w3.org/2000/svg"><path fill-rule="evenodd" clip-rule="evenodd" d="M13.5461 1.41513H9.78763V0.414864H13.5464V1.41513H13.5461ZM7.28554 5.51687C7.52805 5.91933 7.64924 6.40799 7.64924 6.98169C7.64924 7.57497 7.51261 8.1072 7.23463 8.57733C7.05778 8.88843 6.83822 9.15122 6.5744 9.36278C6.27727 9.60744 5.9255 9.77521 5.52111 9.86485C5.11542 9.95464 4.67632 10 4.20333 10H0V0H4.50743C5.64358 0.0198035 6.44906 0.372492 6.9247 1.06513C7.21011 1.48993 7.35152 1.99966 7.35152 2.59216C7.35152 3.20353 7.2084 3.69271 6.9202 4.06438C6.75989 4.27276 6.52306 4.46232 6.20955 4.63341C6.68442 4.81968 7.04474 5.11299 7.28554 5.51687ZM2.15248 3.94249H4.12745C4.53331 3.94249 4.8614 3.85984 5.11409 3.69462C5.36661 3.52965 5.49261 3.23641 5.49261 2.81538C5.49261 2.35022 5.32578 2.04148 4.9913 1.89287C4.7038 1.78963 4.33596 1.73646 3.88961 1.73646H2.15248V3.94249ZM5.68278 6.83884C5.68278 6.3194 5.48463 5.96028 5.08912 5.76759C4.86796 5.65807 4.55591 5.6021 4.1558 5.5981H2.15248V8.26305H4.1248C4.52999 8.26305 4.84361 8.20622 5.06994 8.08766C5.47811 7.86967 5.68278 7.45481 5.68278 6.83884ZM14.9406 5.21201C14.986 5.53918 15.0065 6.01386 14.9982 6.63431H10.1306C10.1574 7.35418 10.3894 7.8576 10.8293 8.14569C11.0946 8.32635 11.4162 8.41457 11.7928 8.41457C12.19 8.41457 12.5137 8.30699 12.7628 8.08586C12.8986 7.96865 13.0184 7.8032 13.1219 7.59444H14.906C14.8593 8.01962 14.6445 8.45085 14.2584 8.88906C13.6603 9.58558 12.8215 9.93484 11.7441 9.93484C10.8542 9.93484 10.0698 9.64029 9.38902 9.05332C8.71048 8.4643 8.3697 7.50902 8.3697 6.18387C8.3697 4.94122 8.67564 3.9901 9.2896 3.32806C9.90582 2.6648 10.7011 2.33468 11.6813 2.33468C12.2624 2.33468 12.7861 2.44595 13.2534 2.66966C13.7192 2.89358 14.1042 3.24601 14.4074 3.73037C14.6818 4.15693 14.8582 4.65015 14.9406 5.21201ZM13.1844 5.39861C13.1517 4.90083 12.9966 4.52408 12.7173 4.2666C12.4403 4.00841 12.0942 3.87879 11.6813 3.87879C11.232 3.87879 10.885 4.01734 10.6384 4.28965C10.3902 4.56141 10.2357 4.93087 10.1724 5.39865H13.1844V5.39861Z" fill="black"/></svg>