<svg width="10" height="10" viewBox="0 0 10 10" fill="none" xmlns="http://www.w3.org/2000/svg"><path fill-rule="evenodd" clip-rule="evenodd" d="M9.3296 2.49018C8.88248 1.72418 8.27598 1.11768 7.50994 0.670575C6.74377 0.223495 5.90739 0 5.00016 0C4.09302 0 3.25639 0.223495 2.49035 0.670575C1.72428 1.11761 1.11777 1.72411 0.670647 2.49018C0.223496 3.2563 0 4.09293 0 5C0 5.90711 0.223564 6.7436 0.670578 7.50977C1.11768 8.27578 1.72418 8.88228 2.49026 9.32942C3.25639 9.77648 4.09295 10 5.00007 10C5.90719 10 6.74384 9.77648 7.50992 9.32942C8.27595 8.88244 8.88243 8.27578 9.32951 7.50977C9.77653 6.74367 10 5.90707 10 5C10 4.09284 9.77653 3.25619 9.3296 2.49018ZM5.00009 0.72918C6.07643 0.72918 7.01614 1.08507 7.81906 1.79683L7.73768 1.91068C7.70514 1.95634 7.62375 2.04413 7.49359 2.1744C7.36341 2.30456 7.22125 2.42834 7.06719 2.5455C6.913 2.66271 6.70371 2.79616 6.43885 2.94591C6.17408 3.09566 5.89198 3.22702 5.59245 3.33985C5.09336 2.41963 4.55955 1.59064 3.99095 0.852841C4.33389 0.770385 4.67024 0.72918 5.00009 0.72918ZM1.65379 2.3501C2.07043 1.82504 2.57817 1.42133 3.17719 1.13925C3.71537 1.85539 4.24484 2.67576 4.76572 3.6002C3.44627 3.94742 2.1312 4.12105 0.820419 4.12098C0.959383 3.46564 1.23715 2.87528 1.65379 2.3501ZM1.01566 6.53983C0.82466 6.05157 0.729183 5.53825 0.729183 5C0.729183 4.93921 0.731418 4.89362 0.735705 4.86327C2.30697 4.86327 3.76752 4.66151 5.11735 4.25778C5.25626 4.52686 5.37128 4.76775 5.46243 4.98048C5.44485 4.98915 5.41685 4.99886 5.37776 5.00974C5.33856 5.02059 5.31042 5.02812 5.29291 5.03252L5.05208 5.11714C4.88708 5.17793 4.67108 5.28212 4.40426 5.42961C4.13737 5.57733 3.85418 5.75301 3.55468 5.95705C3.25518 6.16112 2.94592 6.43129 2.62695 6.76778C2.30793 7.10412 2.03992 7.46535 1.8229 7.85161C1.47567 7.46535 1.20662 7.02796 1.01566 6.53983ZM5.00009 9.27089C3.98443 9.27089 3.07731 8.94533 2.27867 8.29434L2.37634 8.36599C2.52823 8.03169 2.75173 7.71049 3.04694 7.40239C3.3421 7.0943 3.62637 6.8457 3.89981 6.65684C4.17324 6.46816 4.47053 6.29023 4.79176 6.12292C5.11292 5.95594 5.33199 5.84949 5.44929 5.80407C5.5665 5.7585 5.65984 5.72261 5.72927 5.69653L5.74223 5.68998H5.75534C6.18055 6.80542 6.48452 7.88623 6.66674 8.93224C6.12854 9.15804 5.57307 9.27082 5.00009 9.27089ZM8.59404 7.30796C8.27283 7.80498 7.87126 8.21631 7.38963 8.54171C7.21154 7.54347 6.93391 6.52556 6.55619 5.48831C7.41991 5.35361 8.30749 5.41666 9.21896 5.67698C9.12344 6.26727 8.91508 6.81103 8.59404 7.30796ZM9.20585 4.94142C9.16246 4.9328 9.10814 4.92295 9.04306 4.91216C8.97798 4.90138 8.89869 4.88829 8.80536 4.8731C8.71216 4.85791 8.60783 4.84384 8.4929 4.8308C8.37786 4.81778 8.25527 4.80588 8.12495 4.79502C7.99479 4.78412 7.85587 4.77552 7.70838 4.76896C7.56063 4.76248 7.41098 4.7592 7.25904 4.7592C7.10726 4.7592 6.94761 4.7636 6.7806 4.77222C6.61354 4.78077 6.45191 4.79614 6.29569 4.8178C6.28257 4.79607 6.26634 4.76025 6.24682 4.71031C6.22732 4.66044 6.21309 4.6224 6.20468 4.59636C6.12211 4.41407 6.02658 4.20788 5.91797 3.97791C6.21747 3.8563 6.50292 3.71638 6.77435 3.55792C7.04553 3.39946 7.26239 3.25849 7.42525 3.13481C7.58804 3.01099 7.7421 2.87969 7.88747 2.74084C8.03294 2.60196 8.12721 2.50544 8.17076 2.45117C8.21422 2.3968 8.25543 2.34367 8.29445 2.29166L8.30099 2.28509C8.93465 3.05766 9.25814 3.94738 9.271 4.95442L9.20585 4.94142Z" fill="black"/></svg>