<svg width="10" height="10" viewBox="0 0 10 10" fill="none" xmlns="http://www.w3.org/2000/svg"><path fill-rule="evenodd" clip-rule="evenodd" d="M1.21226 0C0.478811 0 0 0.5039 0 1.166C0 1.8125 0.464185 2.3301 1.18386 2.3301H1.19754C1.94562 2.3301 2.40981 1.8125 2.40981 1.166C2.39696 0.5039 1.94562 0 1.21226 0ZM0.126383 9.998H2.26889V3.252H0.126383V9.998ZM7.5316 3.0938C6.39349 3.0938 5.88449 3.7481 5.59976 4.2081V4.2306H5.58504C5.58963 4.2236 5.59516 4.2148 5.59976 4.208V3.252H3.45631C3.48472 3.8848 3.45631 9.9981 3.45631 9.9981H5.59966V6.2305C5.59966 6.0293 5.61251 5.8272 5.6711 5.6836C5.82496 5.2793 6.17832 4.8633 6.76983 4.8633C7.54528 4.8633 7.85571 5.4824 7.85571 6.3897V9.998H10V6.1299C10 4.0576 8.94159 3.0938 7.5316 3.0938Z" fill="black"/></svg>