<svg width="8" height="10" viewBox="0 0 8 10" fill="none" xmlns="http://www.w3.org/2000/svg"><path fill-rule="evenodd" clip-rule="evenodd" d="M3.28828 6.61423C3.01794 7.98985 2.68897 9.31047 1.7121 10C1.40996 7.91933 2.15498 6.35603 2.50066 4.69797C1.91138 3.73296 2.57094 1.79166 3.81396 2.26945C5.34325 2.85831 2.48977 5.85585 4.40572 6.23112C6.40627 6.62111 7.22234 2.85567 5.9819 1.63061C4.18981 -0.138351 0.764623 1.59023 1.1865 4.12295C1.28859 4.74108 1.94652 4.92955 1.4493 5.78269C0.301771 5.53648 -0.0406529 4.65663 0.00374651 3.48331C0.0748885 1.56361 1.77741 0.219813 3.48585 0.0338112C5.64539 -0.202085 7.67276 0.805147 7.95313 2.78082C8.26787 5.01135 6.97797 7.42691 4.6686 7.25299C4.04247 7.20485 3.77881 6.90434 3.28828 6.61423Z" fill="black"/></svg>