<svg width="12" height="10" viewBox="0 0 12 10" fill="none" xmlns="http://www.w3.org/2000/svg"><path fill-rule="evenodd" clip-rule="evenodd" d="M12 1.18844C11.5552 1.39186 11.0786 1.52034 10.5808 1.58458C11.0891 1.27409 11.481 0.770878 11.6717 0.192719C11.1951 0.481799 10.6655 0.685225 10.1041 0.802998C9.65931 0.310492 9.01324 0 8.30362 0C6.94793 0 5.84643 1.1349 5.84643 2.52677C5.84643 2.71949 5.86761 2.91221 5.90997 3.10493C3.86584 2.99786 2.04413 1.99143 0.836717 0.460385C0.62489 0.835118 0.497793 1.27409 0.497793 1.73448C0.497793 2.61242 0.932039 3.3833 1.59929 3.83298C1.19682 3.82227 0.815534 3.7045 0.476611 3.52248V3.5439C0.476611 4.77516 1.32392 5.79229 2.45719 6.02784C2.24537 6.08137 2.03354 6.11349 1.81112 6.11349C1.65225 6.11349 1.49338 6.09208 1.3451 6.07066C1.65225 7.06638 2.56311 7.79443 3.64342 7.81585C2.79612 8.49036 1.73698 8.89722 0.582524 8.89722C0.39188 8.89722 0.190644 8.88651 0 8.8651C1.09091 9.58244 2.38305 10 3.77052 10C8.30362 10 10.782 6.15632 10.782 2.81585C10.782 2.70878 10.7714 2.60171 10.7714 2.49465C11.248 2.14133 11.6717 1.69165 12 1.18844Z" fill="black"/></svg>