<svg width="207" height="207" viewBox="0 0 207 207" fill="none" xmlns="http://www.w3.org/2000/svg">
<g opacity="0.8">
<path d="M3.87739 75.7673C4.35709 76.5981 4.07242 77.6605 3.24155 78.1402C2.41069 78.6199 1.34827 78.3353 0.868571 77.5044C0.388873 76.6735 0.673547 75.6111 1.50441 75.1314C2.33527 74.6517 3.39769 74.9364 3.87739 75.7673Z" fill="#379FFF"/>
<path d="M18.1693 67.5158C18.649 68.3467 18.3643 69.4091 17.5334 69.8888C16.7026 70.3685 15.6402 70.0838 15.1605 69.253C14.6808 68.4221 14.9654 67.3597 15.7963 66.88C16.6272 66.4003 17.6896 66.685 18.1693 67.5158Z" fill="#379FFF"/>
<path d="M32.4612 59.2644C32.9409 60.0953 32.6562 61.1577 31.8253 61.6374C30.9945 62.1171 29.9321 61.8324 29.4524 61.0016C28.9727 60.1707 29.2573 59.1083 30.0882 58.6286C30.9191 58.1489 31.9815 58.4335 32.4612 59.2644Z" fill="#379FFF"/>
<path d="M46.7531 51.013C47.2328 51.8438 46.9481 52.9063 46.1172 53.386C45.2864 53.8657 44.224 53.581 43.7443 52.7501C43.2646 51.9193 43.5492 50.8568 44.3801 50.3771C45.2109 49.8974 46.2734 50.1821 46.7531 51.013Z" fill="#379FFF"/>
<path d="M61.045 42.7616C61.5247 43.5924 61.24 44.6548 60.4091 45.1345C59.5783 45.6142 58.5158 45.3296 58.0361 44.4987C57.5564 43.6678 57.8411 42.6054 58.672 42.1257C59.5028 41.646 60.5653 41.9307 61.045 42.7616Z" fill="#379FFF"/>
<path d="M75.3369 34.5101C75.8166 35.341 75.5319 36.4034 74.701 36.8831C73.8702 37.3628 72.8077 37.0781 72.328 36.2473C71.8483 35.4164 72.133 34.354 72.9639 33.8743C73.7947 33.3946 74.8572 33.6793 75.3369 34.5101Z" fill="#379FFF"/>
<path d="M89.6287 26.2587C90.1084 27.0896 89.8238 28.152 88.9929 28.6317C88.162 29.1114 87.0996 28.8267 86.6199 27.9958C86.1402 27.165 86.4249 26.1026 87.2558 25.6229C88.0866 25.1432 89.149 25.4278 89.6287 26.2587Z" fill="#379FFF"/>
<path d="M103.921 18.0073C104.4 18.8381 104.116 19.9006 103.285 20.3802C102.454 20.8599 101.392 20.5753 100.912 19.7444C100.432 18.9135 100.717 17.8511 101.548 17.3714C102.379 16.8917 103.441 17.1764 103.921 18.0073Z" fill="#379FFF"/>
<path d="M118.213 9.75584C118.692 10.5867 118.408 11.6491 117.577 12.1288C116.746 12.6085 115.683 12.3238 115.204 11.493C114.724 10.6621 115.009 9.5997 115.84 9.12C116.67 8.6403 117.733 8.92498 118.213 9.75584Z" fill="#379FFF"/>
<path d="M132.504 1.50441C132.984 2.33527 132.699 3.3977 131.869 3.8774C131.038 4.35709 129.975 4.07242 129.496 3.24155C129.016 2.41069 129.301 1.34827 130.131 0.868576C130.962 0.388878 132.025 0.673547 132.504 1.50441Z" fill="#379FFF"/>
<path d="M12.1288 90.0592C12.6085 90.89 12.3238 91.9524 11.493 92.4321C10.6621 92.9118 9.5997 92.6272 9.12 91.7963C8.6403 90.9654 8.92498 89.903 9.75584 89.4233C10.5867 88.9436 11.6491 89.2283 12.1288 90.0592Z" fill="#379FFF"/>
<path d="M26.4207 81.8077C26.9004 82.6386 26.6157 83.701 25.7849 84.1807C24.954 84.6604 23.8916 84.3757 23.4119 83.5449C22.9322 82.714 23.2169 81.6516 24.0477 81.1719C24.8786 80.6922 25.941 80.9769 26.4207 81.8077Z" fill="#379FFF"/>
<path d="M40.7126 73.5563C41.1923 74.3872 40.9076 75.4496 40.0768 75.9293C39.2459 76.409 38.1835 76.1243 37.7038 75.2934C37.2241 74.4626 37.5088 73.4002 38.3396 72.9205C39.1705 72.4408 40.2329 72.7254 40.7126 73.5563Z" fill="#379FFF"/>
<path d="M55.0045 65.3049C55.4842 66.1357 55.1995 67.1982 54.3687 67.6779C53.5378 68.1576 52.4754 67.8729 51.9957 67.042C51.516 66.2112 51.8007 65.1487 52.6315 64.669C53.4624 64.1893 54.5248 64.474 55.0045 65.3049Z" fill="#379FFF"/>
<path d="M69.2964 57.0534C69.7761 57.8843 69.4914 58.9467 68.6605 59.4264C67.8297 59.9061 66.7673 59.6215 66.2876 58.7906C65.8079 57.9597 66.0925 56.8973 66.9234 56.4176C67.7543 55.9379 68.8167 56.2226 69.2964 57.0534Z" fill="#379FFF"/>
<path d="M83.5883 48.802C84.068 49.6329 83.7833 50.6953 82.9524 51.175C82.1216 51.6547 81.0592 51.37 80.5795 50.5392C80.0998 49.7083 80.3844 48.6459 81.2153 48.1662C82.0462 47.6865 83.1086 47.9712 83.5883 48.802Z" fill="#379FFF"/>
<path d="M97.8802 40.5506C98.3599 41.3815 98.0752 42.4439 97.2443 42.9236C96.4135 43.4033 95.3511 43.1186 94.8714 42.2877C94.3917 41.4569 94.6763 40.3945 95.5072 39.9148C96.3381 39.4351 97.4005 39.7197 97.8802 40.5506Z" fill="#379FFF"/>
<path d="M112.172 32.2992C112.652 33.13 112.367 34.1924 111.536 34.6721C110.705 35.1518 109.643 34.8672 109.163 34.0363C108.684 33.2054 108.968 32.143 109.799 31.6633C110.63 31.1836 111.692 31.4683 112.172 32.2992Z" fill="#379FFF"/>
<path d="M126.464 24.0477C126.944 24.8786 126.659 25.941 125.828 26.4207C124.997 26.9004 123.935 26.6157 123.455 25.7849C122.975 24.954 123.26 23.8916 124.091 23.4119C124.922 22.9322 125.984 23.2169 126.464 24.0477Z" fill="#379FFF"/>
<path d="M140.756 15.7963C141.236 16.6272 140.951 17.6896 140.12 18.1693C139.289 18.649 138.227 18.3643 137.747 17.5334C137.267 16.7026 137.552 15.6402 138.383 15.1605C139.214 14.6808 140.276 14.9654 140.756 15.7963Z" fill="#379FFF"/>
<path d="M20.3802 104.351C20.8599 105.182 20.5753 106.244 19.7444 106.724C18.9135 107.204 17.8511 106.919 17.3714 106.088C16.8917 105.257 17.1764 104.195 18.0073 103.715C18.8381 103.236 19.9005 103.52 20.3802 104.351Z" fill="#379FFF"/>
<path d="M34.6721 96.0996C35.1518 96.9305 34.8672 97.9929 34.0363 98.4726C33.2054 98.9523 32.143 98.6676 31.6633 97.8368C31.1836 97.0059 31.4683 95.9435 32.2992 95.4638C33.13 94.9841 34.1924 95.2688 34.6721 96.0996Z" fill="#379FFF"/>
<path d="M48.964 87.8482C49.4437 88.6791 49.1591 89.7415 48.3282 90.2212C47.4973 90.7009 46.4349 90.4162 45.9552 89.5853C45.4755 88.7545 45.7602 87.6921 46.5911 87.2124C47.4219 86.7327 48.4843 87.0173 48.964 87.8482Z" fill="#379FFF"/>
<path d="M63.2559 79.5968C63.7356 80.4276 63.4509 81.4901 62.6201 81.9697C61.7892 82.4494 60.7268 82.1648 60.2471 81.3339C59.7674 80.503 60.0521 79.4406 60.8829 78.9609C61.7138 78.4812 62.7762 78.7659 63.2559 79.5968Z" fill="#379FFF"/>
<path d="M77.5478 71.3453C78.0275 72.1762 77.7428 73.2386 76.912 73.7183C76.0811 74.198 75.0187 73.9133 74.539 73.0825C74.0593 72.2516 74.344 71.1892 75.1748 70.7095C76.0057 70.2298 77.0681 70.5145 77.5478 71.3453Z" fill="#379FFF"/>
<path d="M91.8397 63.0939C92.3194 63.9248 92.0347 64.9872 91.2039 65.4669C90.373 65.9466 89.3106 65.6619 88.8309 64.8311C88.3512 64.0002 88.6359 62.9378 89.4667 62.4581C90.2976 61.9784 91.36 62.263 91.8397 63.0939Z" fill="#379FFF"/>
<path d="M106.132 54.8425C106.611 55.6733 106.327 56.7358 105.496 57.2155C104.665 57.6952 103.602 57.4105 103.123 56.5796C102.643 55.7488 102.928 54.6863 103.759 54.2066C104.589 53.7269 105.652 54.0116 106.132 54.8425Z" fill="#379FFF"/>
<path d="M120.423 46.5911C120.903 47.4219 120.619 48.4843 119.788 48.964C118.957 49.4437 117.894 49.1591 117.415 48.3282C116.935 47.4973 117.22 46.4349 118.051 45.9552C118.881 45.4755 119.944 45.7602 120.423 46.5911Z" fill="#379FFF"/>
<path d="M134.715 38.3396C135.195 39.1705 134.91 40.2329 134.08 40.7126C133.249 41.1923 132.186 40.9076 131.707 40.0768C131.227 39.2459 131.512 38.1835 132.342 37.7038C133.173 37.2241 134.236 37.5088 134.715 38.3396Z" fill="#379FFF"/>
<path d="M149.007 30.0882C149.487 30.9191 149.202 31.9815 148.371 32.4612C147.541 32.9409 146.478 32.6562 145.998 31.8253C145.519 30.9945 145.803 29.9321 146.634 29.4524C147.465 28.9727 148.528 29.2573 149.007 30.0882Z" fill="#379FFF"/>
<path d="M28.6317 118.643C29.1114 119.474 28.8267 120.536 27.9958 121.016C27.165 121.496 26.1026 121.211 25.6229 120.38C25.1432 119.549 25.4278 118.487 26.2587 118.007C27.0896 117.527 28.152 117.812 28.6317 118.643Z" fill="#379FFF"/>
<path d="M42.9236 110.392C43.4033 111.222 43.1186 112.285 42.2877 112.764C41.4569 113.244 40.3944 112.96 39.9147 112.129C39.4351 111.298 39.7197 110.235 40.5506 109.756C41.3815 109.276 42.4439 109.561 42.9236 110.392Z" fill="#379FFF"/>
<path d="M57.2155 102.14C57.6952 102.971 57.4105 104.033 56.5796 104.513C55.7488 104.993 54.6863 104.708 54.2066 103.877C53.7269 103.046 54.0116 101.984 54.8425 101.504C55.6733 101.025 56.7358 101.309 57.2155 102.14Z" fill="#379FFF"/>
<path d="M71.5074 93.8887C71.9871 94.7195 71.7024 95.7819 70.8715 96.2616C70.0407 96.7413 68.9782 96.4567 68.4985 95.6258C68.0188 94.7949 68.3035 93.7325 69.1344 93.2528C69.9652 92.7731 71.0277 93.0578 71.5074 93.8887Z" fill="#379FFF"/>
<path d="M85.7992 85.6372C86.2789 86.4681 85.9943 87.5305 85.1634 88.0102C84.3325 88.4899 83.2701 88.2052 82.7904 87.3744C82.3107 86.5435 82.5954 85.4811 83.4263 85.0014C84.2571 84.5217 85.3195 84.8064 85.7992 85.6372Z" fill="#379FFF"/>
<path d="M100.091 77.3858C100.571 78.2167 100.286 79.2791 99.4553 79.7588C98.6244 80.2385 97.562 79.9538 97.0823 79.1229C96.6026 78.2921 96.8873 77.2297 97.7182 76.75C98.549 76.2703 99.6114 76.5549 100.091 77.3858Z" fill="#379FFF"/>
<path d="M114.383 69.1344C114.863 69.9652 114.578 71.0277 113.747 71.5074C112.916 71.9871 111.854 71.7024 111.374 70.8715C110.895 70.0407 111.179 68.9782 112.01 68.4985C112.841 68.0188 113.903 68.3035 114.383 69.1344Z" fill="#379FFF"/>
<path d="M128.675 60.8829C129.155 61.7138 128.87 62.7762 128.039 63.2559C127.208 63.7356 126.146 63.451 125.666 62.6201C125.186 61.7892 125.471 60.7268 126.302 60.2471C127.133 59.7674 128.195 60.0521 128.675 60.8829Z" fill="#379FFF"/>
<path d="M142.967 52.6315C143.447 53.4624 143.162 54.5248 142.331 55.0045C141.5 55.4842 140.438 55.1995 139.958 54.3687C139.478 53.5378 139.763 52.4754 140.594 51.9957C141.425 51.516 142.487 51.8007 142.967 52.6315Z" fill="#379FFF"/>
<path d="M157.259 44.3801C157.738 45.2109 157.454 46.2734 156.623 46.7531C155.792 47.2328 154.73 46.9481 154.25 46.1172C153.77 45.2864 154.055 44.224 154.886 43.7443C155.717 43.2646 156.779 43.5492 157.259 44.3801Z" fill="#379FFF"/>
<path d="M36.8831 132.935C37.3628 133.766 37.0781 134.828 36.2473 135.308C35.4164 135.788 34.354 135.503 33.8743 134.672C33.3946 133.841 33.6793 132.779 34.5101 132.299C35.341 131.819 36.4034 132.104 36.8831 132.935Z" fill="#379FFF"/>
<path d="M51.175 124.683C51.6547 125.514 51.37 126.577 50.5392 127.056C49.7083 127.536 48.6459 127.251 48.1662 126.421C47.6865 125.59 47.9712 124.527 48.802 124.048C49.6329 123.568 50.6953 123.853 51.175 124.683Z" fill="#379FFF"/>
<path d="M65.4669 116.432C65.9466 117.263 65.6619 118.325 64.831 118.805C64.0002 119.285 62.9378 119 62.4581 118.169C61.9784 117.338 62.263 116.276 63.0939 115.796C63.9248 115.316 64.9872 115.601 65.4669 116.432Z" fill="#379FFF"/>
<path d="M79.7588 108.181C80.2385 109.011 79.9538 110.074 79.1229 110.554C78.2921 111.033 77.2297 110.749 76.75 109.918C76.2703 109.087 76.5549 108.024 77.3858 107.545C78.2167 107.065 79.2791 107.35 79.7588 108.181Z" fill="#379FFF"/>
<path d="M94.0507 99.9291C94.5304 100.76 94.2457 101.822 93.4148 102.302C92.584 102.782 91.5216 102.497 91.0419 101.666C90.5622 100.835 90.8468 99.773 91.6777 99.2933C92.5086 98.8136 93.571 99.0983 94.0507 99.9291Z" fill="#379FFF"/>
<path d="M108.343 91.6777C108.822 92.5086 108.538 93.571 107.707 94.0507C106.876 94.5304 105.813 94.2457 105.334 93.4148C104.854 92.584 105.139 91.5216 105.97 91.0419C106.8 90.5622 107.863 90.8468 108.343 91.6777Z" fill="#379FFF"/>
<path d="M122.634 83.4263C123.114 84.2571 122.829 85.3196 121.999 85.7992C121.168 86.2789 120.105 85.9943 119.626 85.1634C119.146 84.3325 119.431 83.2701 120.261 82.7904C121.092 82.3107 122.155 82.5954 122.634 83.4263Z" fill="#379FFF"/>
<path d="M136.926 75.1748C137.406 76.0057 137.121 77.0681 136.291 77.5478C135.46 78.0275 134.397 77.7428 133.918 76.912C133.438 76.0811 133.723 75.0187 134.553 74.539C135.384 74.0593 136.447 74.344 136.926 75.1748Z" fill="#379FFF"/>
<path d="M151.218 66.9234C151.698 67.7543 151.413 68.8167 150.582 69.2964C149.752 69.7761 148.689 69.4914 148.209 68.6605C147.73 67.8297 148.014 66.7673 148.845 66.2876C149.676 65.8079 150.739 66.0926 151.218 66.9234Z" fill="#379FFF"/>
<path d="M165.51 58.672C165.99 59.5028 165.705 60.5653 164.874 61.045C164.043 61.5247 162.981 61.24 162.501 60.4091C162.022 59.5783 162.306 58.5158 163.137 58.0361C163.968 57.5565 165.03 57.8411 165.51 58.672Z" fill="#379FFF"/>
<path d="M45.1345 147.227C45.6142 148.058 45.3296 149.12 44.4987 149.6C43.6678 150.079 42.6054 149.795 42.1257 148.964C41.646 148.133 41.9307 147.071 42.7616 146.591C43.5924 146.111 44.6548 146.396 45.1345 147.227Z" fill="#379FFF"/>
<path d="M59.4264 138.975C59.9061 139.806 59.6215 140.869 58.7906 141.348C57.9597 141.828 56.8973 141.543 56.4176 140.712C55.9379 139.882 56.2226 138.819 57.0534 138.339C57.8843 137.86 58.9467 138.144 59.4264 138.975Z" fill="#379FFF"/>
<path d="M73.7183 130.724C74.198 131.555 73.9133 132.617 73.0825 133.097C72.2516 133.577 71.1892 133.292 70.7095 132.461C70.2298 131.63 70.5145 130.568 71.3453 130.088C72.1762 129.608 73.2386 129.893 73.7183 130.724Z" fill="#379FFF"/>
<path d="M88.0102 122.472C88.4899 123.303 88.2052 124.366 87.3744 124.845C86.5435 125.325 85.4811 125.04 85.0014 124.21C84.5217 123.379 84.8064 122.316 85.6372 121.837C86.4681 121.357 87.5305 121.642 88.0102 122.472Z" fill="#379FFF"/>
<path d="M102.302 114.221C102.782 115.052 102.497 116.114 101.666 116.594C100.835 117.074 99.773 116.789 99.2933 115.958C98.8136 115.127 99.0983 114.065 99.9291 113.585C100.76 113.105 101.822 113.39 102.302 114.221Z" fill="#379FFF"/>
<path d="M116.594 105.97C117.074 106.8 116.789 107.863 115.958 108.343C115.127 108.822 114.065 108.538 113.585 107.707C113.105 106.876 113.39 105.813 114.221 105.334C115.052 104.854 116.114 105.139 116.594 105.97Z" fill="#379FFF"/>
<path d="M130.886 97.7182C131.366 98.549 131.081 99.6114 130.25 100.091C129.419 100.571 128.357 100.286 127.877 99.4553C127.397 98.6244 127.682 97.562 128.513 97.0823C129.344 96.6026 130.406 96.8873 130.886 97.7182Z" fill="#379FFF"/>
<path d="M145.178 89.4667C145.657 90.2976 145.373 91.36 144.542 91.8397C143.711 92.3194 142.649 92.0347 142.169 91.2039C141.689 90.373 141.974 89.3106 142.805 88.8309C143.636 88.3512 144.698 88.6359 145.178 89.4667Z" fill="#379FFF"/>
<path d="M159.47 81.2153C159.949 82.0462 159.665 83.1086 158.834 83.5883C158.003 84.068 156.941 83.7833 156.461 82.9524C155.981 82.1216 156.266 81.0592 157.097 80.5795C157.928 80.0998 158.99 80.3844 159.47 81.2153Z" fill="#379FFF"/>
<path d="M173.762 72.9639C174.241 73.7947 173.957 74.8572 173.126 75.3369C172.295 75.8166 171.232 75.5319 170.753 74.701C170.273 73.8702 170.558 72.8077 171.389 72.328C172.219 71.8483 173.282 72.133 173.762 72.9639Z" fill="#379FFF"/>
<path d="M53.386 161.519C53.8657 162.349 53.581 163.412 52.7501 163.892C51.9193 164.371 50.8568 164.087 50.3771 163.256C49.8974 162.425 50.1821 161.362 51.013 160.883C51.8438 160.403 52.9063 160.688 53.386 161.519Z" fill="#379FFF"/>
<path d="M67.6779 153.267C68.1576 154.098 67.8729 155.16 67.042 155.64C66.2112 156.12 65.1487 155.835 64.669 155.004C64.1893 154.173 64.474 153.111 65.3049 152.631C66.1357 152.152 67.1982 152.436 67.6779 153.267Z" fill="#379FFF"/>
<path d="M81.9697 145.016C82.4494 145.847 82.1648 146.909 81.3339 147.389C80.503 147.868 79.4406 147.584 78.9609 146.753C78.4812 145.922 78.7659 144.86 79.5968 144.38C80.4276 143.9 81.49 144.185 81.9697 145.016Z" fill="#379FFF"/>
<path d="M96.2616 136.764C96.7413 137.595 96.4567 138.658 95.6258 139.137C94.7949 139.617 93.7325 139.332 93.2528 138.501C92.7731 137.671 93.0578 136.608 93.8887 136.129C94.7195 135.649 95.7819 135.933 96.2616 136.764Z" fill="#379FFF"/>
<path d="M110.554 128.513C111.033 129.344 110.749 130.406 109.918 130.886C109.087 131.366 108.024 131.081 107.545 130.25C107.065 129.419 107.35 128.357 108.181 127.877C109.011 127.397 110.074 127.682 110.554 128.513Z" fill="#379FFF"/>
<path d="M124.845 120.261C125.325 121.092 125.04 122.155 124.21 122.634C123.379 123.114 122.316 122.829 121.837 121.999C121.357 121.168 121.642 120.105 122.472 119.626C123.303 119.146 124.366 119.431 124.845 120.261Z" fill="#379FFF"/>
<path d="M139.137 112.01C139.617 112.841 139.332 113.903 138.501 114.383C137.671 114.863 136.608 114.578 136.128 113.747C135.649 112.916 135.933 111.854 136.764 111.374C137.595 110.895 138.658 111.179 139.137 112.01Z" fill="#379FFF"/>
<path d="M153.429 103.759C153.909 104.589 153.624 105.652 152.793 106.132C151.963 106.611 150.9 106.327 150.42 105.496C149.941 104.665 150.225 103.602 151.056 103.123C151.887 102.643 152.95 102.928 153.429 103.759Z" fill="#379FFF"/>
<path d="M167.721 95.5072C168.201 96.3381 167.916 97.4005 167.085 97.8802C166.254 98.3599 165.192 98.0752 164.712 97.2443C164.233 96.4135 164.517 95.3511 165.348 94.8714C166.179 94.3917 167.241 94.6763 167.721 95.5072Z" fill="#379FFF"/>
<path d="M182.013 87.2558C182.493 88.0866 182.208 89.1491 181.377 89.6288C180.546 90.1084 179.484 89.8238 179.004 88.9929C178.524 88.162 178.809 87.0996 179.64 86.6199C180.471 86.1402 181.533 86.4249 182.013 87.2558Z" fill="#379FFF"/>
<path d="M61.6374 175.811C62.1171 176.641 61.8324 177.704 61.0016 178.184C60.1707 178.663 59.1083 178.379 58.6286 177.548C58.1489 176.717 58.4335 175.654 59.2644 175.175C60.0953 174.695 61.1577 174.98 61.6374 175.811Z" fill="#379FFF"/>
<path d="M75.9293 167.559C76.409 168.39 76.1243 169.452 75.2934 169.932C74.4626 170.412 73.4002 170.127 72.9205 169.296C72.4408 168.465 72.7254 167.403 73.5563 166.923C74.3872 166.444 75.4496 166.728 75.9293 167.559Z" fill="#379FFF"/>
<path d="M90.2212 159.308C90.7009 160.139 90.4162 161.201 89.5853 161.681C88.7545 162.16 87.6921 161.876 87.2124 161.045C86.7327 160.214 87.0173 159.152 87.8482 158.672C88.6791 158.192 89.7415 158.477 90.2212 159.308Z" fill="#379FFF"/>
<path d="M104.513 151.056C104.993 151.887 104.708 152.95 103.877 153.429C103.046 153.909 101.984 153.624 101.504 152.793C101.025 151.963 101.309 150.9 102.14 150.42C102.971 149.941 104.033 150.225 104.513 151.056Z" fill="#379FFF"/>
<path d="M118.805 142.805C119.285 143.636 119 144.698 118.169 145.178C117.338 145.657 116.276 145.373 115.796 144.542C115.316 143.711 115.601 142.649 116.432 142.169C117.263 141.689 118.325 141.974 118.805 142.805Z" fill="#379FFF"/>
<path d="M133.097 134.553C133.577 135.384 133.292 136.447 132.461 136.926C131.63 137.406 130.568 137.121 130.088 136.291C129.608 135.46 129.893 134.397 130.724 133.918C131.555 133.438 132.617 133.723 133.097 134.553Z" fill="#379FFF"/>
<path d="M147.389 126.302C147.868 127.133 147.584 128.195 146.753 128.675C145.922 129.155 144.86 128.87 144.38 128.039C143.9 127.208 144.185 126.146 145.016 125.666C145.847 125.186 146.909 125.471 147.389 126.302Z" fill="#379FFF"/>
<path d="M161.681 118.051C162.16 118.881 161.876 119.944 161.045 120.424C160.214 120.903 159.152 120.619 158.672 119.788C158.192 118.957 158.477 117.894 159.308 117.415C160.139 116.935 161.201 117.22 161.681 118.051Z" fill="#379FFF"/>
<path d="M175.973 109.799C176.452 110.63 176.168 111.692 175.337 112.172C174.506 112.652 173.443 112.367 172.964 111.536C172.484 110.705 172.769 109.643 173.6 109.163C174.43 108.684 175.493 108.968 175.973 109.799Z" fill="#379FFF"/>
<path d="M190.264 101.548C190.744 102.379 190.459 103.441 189.629 103.921C188.798 104.4 187.735 104.116 187.256 103.285C186.776 102.454 187.061 101.392 187.891 100.912C188.722 100.432 189.785 100.717 190.264 101.548Z" fill="#379FFF"/>
<path d="M69.8888 190.102C70.3685 190.933 70.0838 191.996 69.253 192.475C68.4221 192.955 67.3597 192.67 66.88 191.84C66.4003 191.009 66.685 189.946 67.5158 189.467C68.3467 188.987 69.4091 189.272 69.8888 190.102Z" fill="#379FFF"/>
<path d="M84.1807 181.851C84.6604 182.682 84.3757 183.744 83.5449 184.224C82.714 184.704 81.6516 184.419 81.1719 183.588C80.6922 182.757 80.9769 181.695 81.8077 181.215C82.6386 180.735 83.701 181.02 84.1807 181.851Z" fill="#379FFF"/>
<path d="M98.4726 173.6C98.9523 174.43 98.6676 175.493 97.8368 175.973C97.0059 176.452 95.9435 176.168 95.4638 175.337C94.9841 174.506 95.2688 173.443 96.0996 172.964C96.9305 172.484 97.9929 172.769 98.4726 173.6Z" fill="#379FFF"/>
<path d="M112.764 165.348C113.244 166.179 112.96 167.241 112.129 167.721C111.298 168.201 110.235 167.916 109.756 167.085C109.276 166.254 109.561 165.192 110.392 164.712C111.222 164.233 112.285 164.517 112.764 165.348Z" fill="#379FFF"/>
<path d="M127.056 157.097C127.536 157.928 127.251 158.99 126.421 159.47C125.59 159.949 124.527 159.665 124.048 158.834C123.568 158.003 123.853 156.941 124.683 156.461C125.514 155.981 126.577 156.266 127.056 157.097Z" fill="#379FFF"/>
<path d="M141.348 148.845C141.828 149.676 141.543 150.739 140.712 151.218C139.882 151.698 138.819 151.413 138.339 150.582C137.86 149.752 138.144 148.689 138.975 148.209C139.806 147.73 140.869 148.014 141.348 148.845Z" fill="#379FFF"/>
<path d="M155.64 140.594C156.12 141.425 155.835 142.487 155.004 142.967C154.173 143.447 153.111 143.162 152.631 142.331C152.152 141.5 152.436 140.438 153.267 139.958C154.098 139.478 155.16 139.763 155.64 140.594Z" fill="#379FFF"/>
<path d="M169.932 132.342C170.412 133.173 170.127 134.236 169.296 134.715C168.465 135.195 167.403 134.91 166.923 134.08C166.444 133.249 166.728 132.186 167.559 131.707C168.39 131.227 169.452 131.512 169.932 132.342Z" fill="#379FFF"/>
<path d="M184.224 124.091C184.704 124.922 184.419 125.984 183.588 126.464C182.757 126.944 181.695 126.659 181.215 125.828C180.735 124.997 181.02 123.935 181.851 123.455C182.682 122.975 183.744 123.26 184.224 124.091Z" fill="#379FFF"/>
<path d="M198.516 115.84C198.996 116.67 198.711 117.733 197.88 118.213C197.049 118.692 195.987 118.408 195.507 117.577C195.027 116.746 195.312 115.683 196.143 115.204C196.974 114.724 198.036 115.009 198.516 115.84Z" fill="#379FFF"/>
<path d="M78.1402 204.394C78.6199 205.225 78.3353 206.288 77.5044 206.767C76.6735 207.247 75.6111 206.962 75.1314 206.131C74.6517 205.301 74.9364 204.238 75.7673 203.758C76.5981 203.279 77.6605 203.563 78.1402 204.394Z" fill="#379FFF"/>
<path d="M92.4321 196.143C92.9118 196.974 92.6272 198.036 91.7963 198.516C90.9654 198.996 89.903 198.711 89.4233 197.88C88.9436 197.049 89.2283 195.987 90.0592 195.507C90.89 195.027 91.9524 195.312 92.4321 196.143Z" fill="#379FFF"/>
<path d="M106.724 187.891C107.204 188.722 106.919 189.785 106.088 190.264C105.257 190.744 104.195 190.459 103.715 189.629C103.236 188.798 103.52 187.735 104.351 187.256C105.182 186.776 106.244 187.061 106.724 187.891Z" fill="#379FFF"/>
<path d="M121.016 179.64C121.496 180.471 121.211 181.533 120.38 182.013C119.549 182.493 118.487 182.208 118.007 181.377C117.527 180.546 117.812 179.484 118.643 179.004C119.474 178.524 120.536 178.809 121.016 179.64Z" fill="#379FFF"/>
<path d="M135.308 171.389C135.788 172.219 135.503 173.282 134.672 173.762C133.841 174.241 132.779 173.957 132.299 173.126C131.819 172.295 132.104 171.232 132.935 170.753C133.766 170.273 134.828 170.558 135.308 171.389Z" fill="#379FFF"/>
<path d="M149.6 163.137C150.079 163.968 149.795 165.03 148.964 165.51C148.133 165.99 147.071 165.705 146.591 164.874C146.111 164.043 146.396 162.981 147.227 162.501C148.058 162.022 149.12 162.306 149.6 163.137Z" fill="#379FFF"/>
<path d="M163.892 154.886C164.371 155.717 164.087 156.779 163.256 157.259C162.425 157.738 161.362 157.454 160.883 156.623C160.403 155.792 160.688 154.73 161.519 154.25C162.349 153.77 163.412 154.055 163.892 154.886Z" fill="#379FFF"/>
<path d="M178.183 146.634C178.663 147.465 178.379 148.528 177.548 149.007C176.717 149.487 175.654 149.202 175.175 148.371C174.695 147.541 174.98 146.478 175.811 145.998C176.641 145.519 177.704 145.803 178.183 146.634Z" fill="#379FFF"/>
<path d="M192.475 138.383C192.955 139.214 192.67 140.276 191.84 140.756C191.009 141.236 189.946 140.951 189.467 140.12C188.987 139.289 189.272 138.227 190.102 137.747C190.933 137.267 191.996 137.552 192.475 138.383Z" fill="#379FFF"/>
<path d="M206.767 130.131C207.247 130.962 206.962 132.025 206.131 132.504C205.301 132.984 204.238 132.699 203.758 131.869C203.279 131.038 203.563 129.975 204.394 129.496C205.225 129.016 206.288 129.301 206.767 130.131Z" fill="#379FFF"/>
</g>
</svg>